<svg width="500" height="105" viewBox="0 0 500 105" fill="none" xmlns="http://www.w3.org/2000/svg">
<path d="M0 91C0 89.3431 1.34315 88 3 88C4.65685 88 6 89.3431 6 91V105H0V91Z" fill="white"/>
<path d="M26 87C26 85.3431 27.3431 84 29 84C30.6569 84 32 85.3431 32 87V105H26V87Z" fill="white"/>
<path d="M52 83C52 81.3431 53.3431 80 55 80C56.6569 80 58 81.3431 58 83V105H52V83Z" fill="white"/>
<path d="M78 70C78 68.3431 79.3431 67 81 67C82.6569 67 84 68.3431 84 70V105H78V70Z" fill="white"/>
<path d="M104 76C104 74.3431 105.343 73 107 73C108.657 73 110 74.3431 110 76V105H104V76Z" fill="white"/>
<path d="M130 60C130 58.3431 131.343 57 133 57C134.657 57 136 58.3431 136 60V105H130V60Z" fill="white"/>
<path d="M156 49C156 47.3431 157.343 46 159 46C160.657 46 162 47.3431 162 49V105H156V49Z" fill="white"/>
<path d="M182 52C182 50.3431 183.343 49 185 49C186.657 49 188 50.3431 188 52V105H182V52Z" fill="white"/>
<path d="M208 44C208 42.3431 209.343 41 211 41C212.657 41 214 42.3431 214 44V105H208V44Z" fill="white"/>
<path d="M234 36C234 34.3431 235.343 33 237 33C238.657 33 240 34.3431 240 36V105H234V36Z" fill="white"/>
<path d="M260 19C260 17.3431 261.343 16 263 16C264.657 16 266 17.3431 266 19V105H260V19Z" fill="#11ED38"/>
<path d="M286 3C286 1.34315 287.343 0 289 0C290.657 0 292 1.34315 292 3V105H286V3Z" fill="#11ED38"/>
<path d="M312 52C312 50.3431 313.343 49 315 49C316.657 49 318 50.3431 318 52V105H312V52Z" fill="white"/>
<path d="M338 52C338 50.3431 339.343 49 341 49C342.657 49 344 50.3431 344 52V105H338V52Z" fill="white"/>
<path d="M364 83C364 81.3431 365.343 80 367 80C368.657 80 370 81.3431 370 83V105H364V83Z" fill="white"/>
<path d="M390 80C390 78.3431 391.343 77 393 77C394.657 77 396 78.3431 396 80V105H390V80Z" fill="white"/>
<path d="M416 70C416 68.3431 417.343 67 419 67C420.657 67 422 68.3431 422 70V105H416V70Z" fill="white"/>
<path d="M442 74C442 72.3431 443.343 71 445 71C446.657 71 448 72.3431 448 74V105H442V74Z" fill="white"/>
<path d="M468 76C468 74.3431 469.343 73 471 73C472.657 73 474 74.3431 474 76V105H468V76Z" fill="white"/>
<path d="M494 87C494 85.3431 495.343 84 497 84C498.657 84 500 85.3431 500 87V105H494V87Z" fill="white"/>
</svg>
