<svg width="218" height="57" viewBox="0 0 218 57" fill="none" xmlns="http://www.w3.org/2000/svg">
<g clip-path="url(#clip0_1_827)">
<path d="M104.51 19.917C108.687 19.917 109.627 21.7313 109.627 23.9942C109.627 26.3929 108.49 28.1113 104.528 28.1113C100.59 28.1113 99.4521 26.4927 99.4521 23.9942C99.4521 21.5356 100.693 19.917 104.51 19.917Z" fill="#C4C4C4"/>
<path d="M148.163 19.917C152.34 19.917 153.28 21.7313 153.28 23.9942C153.28 26.3929 152.142 28.1113 148.18 28.1113C144.244 28.1113 143.105 26.4927 143.105 23.9942C143.105 21.5356 144.345 19.917 148.163 19.917Z" fill="#C4C4C4"/>
<path fill-rule="evenodd" clip-rule="evenodd" d="M67.5276 47.5778V0.385742H278.614V47.5778H67.5276ZM168.131 44.9156H275.951V3.04797H168.131V44.9156ZM104.53 32.1275C111.946 32.1275 115.063 28.9289 115.063 23.9332C115.063 18.8563 111.552 15.8387 104.53 15.8387C97.6165 15.8387 93.9772 19.1159 93.9772 23.9332C93.9772 29.3695 97.7949 32.1275 104.53 32.1275ZM78.7479 16.1981V31.8879H93.715V27.7096H84.1629V16.1981H78.7479ZM131.814 31.8879L131.674 30.3678C129.863 31.6606 127.658 32.2827 125.438 32.1275C122.101 32.1275 119.322 31.1279 117.763 29.1099C116.735 27.6366 116.216 25.8681 116.284 24.0729C116.226 22.3155 116.763 20.5898 117.808 19.1758C119.386 17.2177 122.245 15.9185 126.502 15.9185C131.399 15.9185 134.277 17.4174 135.515 19.9358C135.78 20.529 135.937 21.1653 135.975 21.814H130.795C130.664 21.4198 130.421 21.0723 130.096 20.8144C129.064 20.1302 127.831 19.8138 126.598 19.9159C125.874 19.8282 125.14 19.895 124.444 20.1121C123.748 20.3292 123.106 20.6915 122.56 21.1751C121.941 22.023 121.65 23.0669 121.742 24.1129C121.67 25.1108 121.937 26.1038 122.5 26.9309C123.051 27.4437 123.705 27.8322 124.419 28.0702C125.133 28.308 125.889 28.3899 126.637 28.3099C128.123 28.4308 129.599 27.9725 130.755 27.0307C131.003 26.7203 131.174 26.3553 131.254 25.9658H125.679V22.5941H136.111V31.8879H131.814ZM148.183 32.1275C155.597 32.1275 158.716 28.9289 158.716 23.9332C158.716 18.8563 155.199 15.8387 148.183 15.8387C141.269 15.8387 137.63 19.1159 137.63 23.9332C137.63 29.3695 141.447 32.1275 148.183 32.1275Z" fill="#C4C4C4"/>
<path d="M177.252 31.8295V16.1396H181.112V31.8295H177.252Z" fill="#C4C4C4"/>
<path d="M200.935 25.2733C199.957 26.5526 198.273 27.1369 195.899 27.1516C195.399 27.1516 188.763 27.1316 188.763 27.1316V31.8291H184.986V16.1392H195.901C196.776 16.0467 197.661 16.1395 198.496 16.4114C199.334 16.6835 200.103 17.1286 200.757 17.7179C201.619 18.8417 202.039 20.2428 201.936 21.6554C202.024 22.9402 201.671 24.2166 200.935 25.2733ZM197.838 20.1579C197.438 19.5589 196.577 19.2261 195.119 19.2261H188.743V24.0021H195.078C196.637 24.0021 197.458 23.6827 197.838 23.0624C198.063 22.6254 198.16 22.1332 198.117 21.6434C198.15 21.1325 198.055 20.6215 197.838 20.1579Z" fill="#C4C4C4"/>
<path d="M213.068 32.0685C205.952 32.0685 203.774 29.4062 203.774 26.772H207.812C207.812 28.0711 209.59 29.0508 213.248 29.0508C216.884 29.0508 217.844 28.4106 217.844 27.371C217.844 26.2116 217.125 25.8522 213.747 25.4728C213.081 25.4129 211.27 25.1933 210.59 25.0934C205.798 24.553 203.953 23.134 203.953 20.5956C203.953 17.9174 206.652 15.8994 212.508 15.8994C218.864 15.8994 221.302 18.3979 221.302 20.9963H217.309C217.309 19.6771 215.81 18.9171 212.272 18.9171C208.634 18.9171 207.855 19.4162 207.855 20.3959C207.855 21.4156 208.654 21.735 212.514 22.1943C213.394 22.3154 215.352 22.535 215.891 22.5936C219.97 23.0129 221.808 24.4918 221.808 27.1101C221.802 30.2289 219.004 32.0685 213.068 32.0685Z" fill="#C4C4C4"/>
</g>
<defs>
<clipPath id="clip0_1_827">
<rect width="216.972" height="55.9069" fill="white" transform="translate(0.297363 0.331055)"/>
</clipPath>
</defs>
</svg>
