<svg width="206" height="46" viewBox="0 0 206 46" fill="none" xmlns="http://www.w3.org/2000/svg">
<g clip-path="url(#clip0_1_800)">
<path d="M125.024 26.8615C125.024 27.8494 124.821 28.6085 124.415 29.1389C124.02 29.6693 123.36 29.9345 122.434 29.9345C121.561 29.9345 120.942 29.6693 120.578 29.1389C120.224 28.6085 120.047 27.8494 120.047 26.8615V10.3733C120.047 9.38537 120.224 8.62622 120.578 8.09585C120.942 7.56548 121.561 7.30029 122.434 7.30029C123.36 7.30029 124.02 7.56548 124.415 8.09585C124.821 8.62622 125.024 9.38537 125.024 10.3733V26.8615Z" fill="#C4C4C4"/>
<path d="M126.534 22.072C126.534 20.9695 126.711 19.9297 127.065 18.9521C127.428 17.9641 127.969 17.101 128.687 16.3627C129.415 15.6243 130.32 15.0367 131.401 14.6C132.493 14.1631 133.772 13.9448 135.238 13.9448C136.642 13.9448 137.885 14.1476 138.967 14.5531C140.048 14.9587 140.958 15.5255 141.696 16.2535C142.435 16.971 142.996 17.8289 143.381 18.8272C143.766 19.8152 143.958 20.8967 143.958 22.072C143.958 23.1639 143.776 24.1985 143.412 25.1761C143.048 26.1432 142.502 26.996 141.774 27.7344C141.046 28.4622 140.136 29.0446 139.045 29.4815C137.953 29.9078 136.684 30.1209 135.238 30.1209C133.814 30.1209 132.555 29.9182 131.463 29.5126C130.382 29.0966 129.472 28.5299 128.734 27.8123C128.006 27.0844 127.454 26.2317 127.08 25.2541C126.716 24.2662 126.534 23.2054 126.534 22.072ZM131.729 22.072C131.729 22.7583 131.791 23.4134 131.916 24.0373C132.041 24.6509 132.238 25.1917 132.509 25.6597C132.789 26.1276 133.153 26.502 133.6 26.7828C134.048 27.0531 134.594 27.1884 135.238 27.1884C135.831 27.1884 136.346 27.0636 136.783 26.8139C137.23 26.5645 137.594 26.216 137.875 25.7689C138.166 25.3217 138.384 24.7861 138.53 24.1622C138.675 23.5278 138.748 22.8311 138.748 22.072C138.748 21.3855 138.681 20.7355 138.545 20.122C138.421 19.4981 138.218 18.9521 137.937 18.4841C137.656 18.0058 137.292 17.6313 136.845 17.361C136.408 17.0803 135.873 16.9398 135.238 16.9398C134.604 16.9398 134.063 17.0749 133.616 17.3454C133.169 17.6158 132.805 17.9849 132.524 18.4529C132.243 18.9209 132.041 19.4668 131.916 20.0909C131.791 20.7147 131.729 21.3751 131.729 22.072Z" fill="#C4C4C4"/>
<path d="M156.762 26.9233C156.482 27.4432 156.138 27.8852 155.733 28.2492C155.338 28.6132 154.896 28.9148 154.407 29.154C153.929 29.3827 153.414 29.5543 152.863 29.6687C152.322 29.7727 151.766 29.8247 151.194 29.8247C150.237 29.8247 149.363 29.6532 148.573 29.3099C147.783 28.9667 147.102 28.4727 146.53 27.8281C145.968 27.1729 145.531 26.3721 145.219 25.4258C144.907 24.4794 144.751 23.3978 144.751 22.1812C144.751 21.0372 144.897 19.9661 145.188 18.9678C145.479 17.9694 145.9 17.1011 146.452 16.3628C147.013 15.6244 147.699 15.042 148.511 14.6157C149.322 14.1893 150.247 13.9761 151.287 13.9761C152.473 13.9761 153.523 14.2049 154.438 14.6624C155.364 15.12 156.159 15.8688 156.825 16.9087V16.5032C156.825 15.7544 157.028 15.1928 157.433 14.8184C157.849 14.4337 158.421 14.2412 159.149 14.2412C159.586 14.2412 159.955 14.314 160.257 14.4597C160.558 14.5949 160.797 14.8028 160.974 15.0837C161.151 15.354 161.276 15.692 161.349 16.0976C161.432 16.4927 161.473 16.9451 161.473 17.4547V27.9061C161.473 29.1748 161.312 30.3082 160.99 31.3065C160.678 32.3049 160.189 33.1473 159.523 33.8337C158.858 34.52 158.005 35.0399 156.965 35.3936C155.925 35.7575 154.688 35.9395 153.253 35.9395C152.244 35.9395 151.35 35.8928 150.57 35.7991C149.8 35.716 149.135 35.5859 148.573 35.4092C148.011 35.2115 147.585 34.9932 147.294 34.754C147.013 34.5148 146.873 34.2028 146.873 33.8181C146.873 33.5996 146.904 33.3917 146.966 33.1941C147.029 32.9965 147.122 32.8197 147.247 32.6637C147.382 32.5181 147.554 32.3986 147.762 32.3049C147.98 32.2218 148.245 32.1801 148.557 32.1801C148.89 32.1801 149.223 32.2009 149.556 32.2426C149.899 32.2841 150.253 32.3258 150.616 32.3673C150.991 32.4193 151.381 32.4661 151.786 32.5077C152.202 32.5493 152.649 32.5702 153.128 32.5702C153.7 32.5702 154.209 32.5129 154.657 32.3986C155.104 32.2841 155.483 32.0814 155.795 31.7901C156.107 31.499 156.347 31.109 156.513 30.6202C156.679 30.1418 156.762 29.5283 156.762 28.7795V26.9233ZM156.762 22.0721C156.762 21.3128 156.705 20.6213 156.591 19.9974C156.487 19.3734 156.305 18.843 156.045 18.4062C155.785 17.959 155.437 17.6159 155 17.3767C154.563 17.1271 154.017 17.0024 153.362 17.0024C152.717 17.0024 152.182 17.1323 151.755 17.3923C151.339 17.6522 151.006 18.0111 150.757 18.4686C150.507 18.9262 150.331 19.4617 150.226 20.0754C150.133 20.6889 150.086 21.3441 150.086 22.0408C150.086 23.6319 150.367 24.8279 150.928 25.6285C151.49 26.4293 152.306 26.8297 153.377 26.8297C153.877 26.8193 154.329 26.7256 154.735 26.5489C155.151 26.3617 155.509 26.0758 155.811 25.691C156.113 25.3061 156.347 24.8173 156.513 24.2246C156.679 23.6319 156.762 22.9144 156.762 22.0721Z" fill="#C4C4C4"/>
<path d="M162.906 22.072C162.906 20.9695 163.083 19.9297 163.436 18.9521C163.8 17.9641 164.341 17.101 165.059 16.3627C165.787 15.6243 166.691 15.0367 167.773 14.6C168.865 14.1631 170.144 13.9448 171.61 13.9448C173.014 13.9448 174.257 14.1476 175.338 14.5531C176.42 14.9587 177.33 15.5255 178.068 16.2535C178.807 16.971 179.368 17.8289 179.753 18.8272C180.138 19.8152 180.33 20.8967 180.33 22.072C180.33 23.1639 180.148 24.1985 179.784 25.1761C179.42 26.1432 178.874 26.996 178.146 27.7344C177.418 28.4622 176.508 29.0446 175.416 29.4815C174.324 29.9078 173.056 30.1209 171.61 30.1209C170.185 30.1209 168.927 29.9182 167.835 29.5126C166.754 29.0966 165.844 28.5299 165.105 27.8123C164.378 27.0844 163.826 26.2317 163.452 25.2541C163.088 24.2662 162.906 23.2054 162.906 22.072ZM168.1 22.072C168.1 22.7583 168.163 23.4134 168.288 24.0373C168.412 24.6509 168.61 25.1917 168.88 25.6597C169.161 26.1276 169.525 26.502 169.972 26.7828C170.419 27.0531 170.966 27.1884 171.61 27.1884C172.203 27.1884 172.718 27.0636 173.155 26.8139C173.602 26.5645 173.966 26.216 174.246 25.7689C174.538 25.3217 174.756 24.7861 174.902 24.1622C175.047 23.5278 175.12 22.8311 175.12 22.072C175.12 21.3855 175.052 20.7355 174.917 20.122C174.792 19.4981 174.59 18.9521 174.309 18.4841C174.028 18.0058 173.664 17.6313 173.217 17.361C172.78 17.0803 172.245 16.9398 171.61 16.9398C170.976 16.9398 170.435 17.0749 169.988 17.3454C169.541 17.6158 169.177 17.9849 168.896 18.4529C168.615 18.9209 168.412 19.4668 168.288 20.0909C168.163 20.7147 168.1 21.3751 168.1 22.072Z" fill="#C4C4C4"/>
<path d="M187.02 8.68743C187.02 9.03062 186.942 9.33739 186.786 9.60778C186.63 9.86776 186.427 10.0861 186.177 10.263C185.928 10.4398 185.636 10.5749 185.304 10.6685C184.981 10.7516 184.649 10.7933 184.305 10.7933C183.941 10.7933 183.593 10.7465 183.26 10.6529C182.938 10.5593 182.652 10.4242 182.402 10.2473C182.153 10.0601 181.955 9.83656 181.809 9.57658C181.664 9.3166 181.591 9.02021 181.591 8.68743C181.591 8.38585 181.659 8.11027 181.794 7.86069C181.94 7.60071 182.132 7.37712 182.371 7.18993C182.61 7.00275 182.896 6.85715 183.229 6.75316C183.562 6.64916 183.926 6.59717 184.321 6.59717C184.664 6.59717 184.997 6.64397 185.319 6.73756C185.652 6.83115 185.943 6.96634 186.193 7.14314C186.442 7.31992 186.64 7.53831 186.786 7.79829C186.942 8.05828 187.02 8.35465 187.02 8.68743ZM186.786 26.8603C186.786 27.8482 186.583 28.6074 186.177 29.1377C185.782 29.6681 185.122 29.9333 184.196 29.9333C183.323 29.9333 182.704 29.6681 182.34 29.1377C181.986 28.6074 181.809 27.8482 181.809 26.8603V17.3136C181.809 16.3257 181.986 15.5666 182.34 15.0362C182.704 14.5059 183.323 14.2406 184.196 14.2406C185.122 14.2406 185.782 14.5059 186.177 15.0362C186.583 15.5666 186.786 16.3257 186.786 17.3136V26.8603Z" fill="#C4C4C4"/>
<path d="M193.959 22.0408C193.959 22.7376 194.011 23.3875 194.115 23.9907C194.229 24.5939 194.416 25.1242 194.676 25.5818C194.947 26.0289 195.3 26.3825 195.737 26.6424C196.184 26.9025 196.735 27.0325 197.39 27.0325C197.994 27.0325 198.498 26.9077 198.904 26.6581C199.319 26.3982 199.652 26.0445 199.902 25.5974C200.151 25.1397 200.328 24.6042 200.432 23.9907C200.547 23.3771 200.604 22.7115 200.604 21.9941C200.604 21.4221 200.562 20.8397 200.479 20.247C200.396 19.6437 200.24 19.0978 200.011 18.609C199.782 18.1202 199.466 17.7198 199.06 17.4078C198.654 17.0959 198.124 16.9399 197.468 16.9399C196.813 16.9399 196.257 17.0439 195.799 17.252C195.352 17.4599 194.988 17.7771 194.707 18.2034C194.437 18.6298 194.245 19.1654 194.13 19.8101C194.016 20.4445 193.959 21.1881 193.959 22.0408ZM193.943 17.3142C194.203 16.7632 194.536 16.2796 194.941 15.8636C195.347 15.4476 195.794 15.0993 196.283 14.8184C196.772 14.5377 197.281 14.3296 197.812 14.1945C198.353 14.0489 198.888 13.9761 199.418 13.9761C200.375 13.9761 201.239 14.1893 202.008 14.6157C202.777 15.042 203.432 15.6244 203.973 16.3628C204.524 17.0908 204.946 17.9538 205.237 18.9522C205.528 19.9401 205.674 21.0009 205.674 22.1343C205.674 23.3095 205.517 24.3858 205.205 25.3634C204.905 26.3409 204.472 27.1833 203.91 27.8904C203.359 28.5872 202.694 29.1331 201.914 29.5283C201.144 29.9235 200.287 30.121 199.341 30.121C198.176 30.121 197.136 29.8507 196.221 29.3099C195.305 28.7692 194.546 28.01 193.943 27.0325V32.6482C193.943 33.636 193.74 34.3953 193.335 34.9256C192.939 35.4559 192.279 35.7212 191.354 35.7212C190.48 35.7212 189.861 35.4559 189.497 34.9256C189.144 34.3953 188.967 33.636 188.967 32.6482V17.3142C188.967 16.3263 189.144 15.5672 189.497 15.0368C189.861 14.5065 190.48 14.2412 191.354 14.2412C192.279 14.2412 192.939 14.5065 193.335 15.0368C193.74 15.5672 193.943 16.3263 193.943 17.3142Z" fill="#C4C4C4"/>
<path d="M87.6067 27.2717C83.1957 27.2717 79.62 23.696 79.62 19.285C79.62 14.8741 83.1957 11.2983 87.6067 11.2983C92.0176 11.2983 95.5934 14.8741 95.5934 19.285C95.5934 23.696 92.0176 27.2717 87.6067 27.2717Z" fill="#C4C4C4"/>
<path d="M72.1341 22.0134C69.8196 22.4215 68.2331 24.6573 69.1216 26.8331C70.362 29.8707 72.3409 32.5771 74.9063 34.692C78.5748 37.7159 83.2017 39.3318 87.9551 39.2488C92.7086 39.1659 97.2764 37.3895 100.837 34.2393C103.327 32.0363 105.21 29.2624 106.344 26.1834C107.156 23.9779 105.492 21.7988 103.165 21.4718C100.838 21.1447 98.7484 22.8387 97.5988 24.8886C96.9757 25.9997 96.1668 27.0078 95.1977 27.8651C93.1547 29.6726 90.5339 30.6917 87.8067 30.7394C85.0794 30.7869 82.4246 29.8599 80.3199 28.1248C79.3214 27.3018 78.4779 26.3226 77.8163 25.2339C76.596 23.2254 74.4485 21.6053 72.1341 22.0134Z" fill="#C4C4C4"/>
<path d="M107.419 21.7798C107.521 20.9623 107.573 20.1296 107.573 19.2846C107.573 8.25729 98.634 -0.682129 87.6067 -0.682129C76.5793 -0.682129 67.6399 8.25729 67.6399 19.2846C67.6399 20.3691 67.7264 21.4333 67.8928 22.4709C68.8099 21.2154 70.2413 20.3192 71.7874 20.0465C73.4602 19.7516 74.9805 20.1573 76.2659 20.9156C76.19 20.3829 76.1507 19.8384 76.1507 19.2846C76.1507 12.9577 81.2797 7.82863 87.6067 7.82863C93.9336 7.82863 99.0626 12.9577 99.0626 19.2846C99.0626 19.7018 99.0403 20.1138 98.9969 20.5194C100.255 19.7163 101.761 19.2575 103.443 19.494C104.997 19.7124 106.459 20.5577 107.419 21.7798Z" fill="#C4C4C4"/>
</g>
<defs>
<clipPath id="clip0_1_800">
<rect width="204.992" height="45.2579" fill="white" transform="translate(0.977661 0.655762)"/>
</clipPath>
</defs>
</svg>
