<svg width="176" height="47" viewBox="0 0 176 47" fill="none" xmlns="http://www.w3.org/2000/svg">
<g clip-path="url(#clip0_1_836)">
<path d="M104.881 12.2969C105.36 12.2969 105.52 12.4699 105.52 12.9358V23.4782H110.938C111.404 23.4782 111.577 23.6513 111.577 24.1172V25.049C111.577 25.5149 111.404 25.6879 110.938 25.6879H103.803C103.337 25.6879 103.151 25.5149 103.151 25.049V12.9358C103.151 12.4699 103.337 12.2969 103.803 12.2969H104.881Z" fill="#C4C4C4"/>
<path d="M116.302 16.9427C116.302 13.8678 118.245 12.0176 121.626 12.0176C125.007 12.0176 126.951 13.8678 126.951 16.9427V21.0425C126.951 24.1174 124.994 25.9677 121.626 25.9677C118.259 25.9677 116.302 24.1174 116.302 21.0425V16.9427ZM124.715 16.9427C124.715 15.2123 123.636 14.2805 121.693 14.2805C119.75 14.2805 118.685 15.2256 118.685 16.9427V21.0692C118.685 22.8129 119.75 23.7314 121.693 23.7314C123.636 23.7314 124.715 22.773 124.715 21.0692V16.9427Z" fill="#C4C4C4"/>
<path d="M142.804 18.3542C143.323 18.3542 143.443 18.5272 143.443 18.9931V21.5223C143.457 22.1179 143.338 22.7093 143.094 23.2528C142.85 23.7965 142.487 24.2785 142.032 24.6637C140.903 25.5629 139.479 26.0089 138.039 25.9149C134.591 25.9149 132.714 24.0647 132.714 20.9898V16.8634C132.714 13.8284 134.658 11.9648 138.039 11.9648C140.701 11.9648 142.432 13.0164 143.164 15.1196C143.205 15.1987 143.227 15.2861 143.228 15.375C143.229 15.4641 143.21 15.5522 143.171 15.6322C143.132 15.7123 143.075 15.7824 143.005 15.8367C142.934 15.8908 142.852 15.928 142.764 15.9449L141.726 16.3043C141.274 16.464 141.087 16.3708 140.927 15.9049C140.707 15.3364 140.303 14.8575 139.78 14.5441C139.257 14.2308 138.644 14.1006 138.039 14.1745C136.082 14.1745 135.017 15.1196 135.017 16.8367V21.0697C135.017 22.8134 136.096 23.7319 138.039 23.7319C139.982 23.7319 141.18 22.8401 141.18 21.5356V20.5505H138.292C137.813 20.5505 137.64 20.3642 137.64 19.8983V18.9931C137.64 18.5272 137.813 18.3542 138.292 18.3542H142.804Z" fill="#C4C4C4"/>
<path d="M148.941 16.9427C148.941 13.8678 150.884 12.0176 154.265 12.0176C157.646 12.0176 159.59 13.8678 159.59 16.9427V21.0425C159.59 24.1174 157.633 25.9677 154.265 25.9677C150.898 25.9677 148.941 24.1174 148.941 21.0425V16.9427ZM157.34 16.9427C157.34 15.2123 156.262 14.2805 154.332 14.2805C152.402 14.2805 151.31 15.2256 151.31 16.9427V21.0692C151.31 22.8129 152.388 23.7314 154.332 23.7314C156.275 23.7314 157.34 22.773 157.34 21.0692V16.9427Z" fill="#C4C4C4"/>
<path d="M165.859 12.6829C165.859 12.3901 165.952 12.2969 166.245 12.2969H166.858C167.15 12.2969 167.217 12.3901 167.217 12.6829V25.3019C167.217 25.5947 167.217 25.6879 166.858 25.6879H166.245C165.952 25.6879 165.859 25.5947 165.859 25.3019V12.6829Z" fill="#C4C4C4"/>
<path d="M179.343 12.2969C180.452 12.2969 181.515 12.7372 182.299 13.5211C183.083 14.3049 183.523 15.368 183.523 16.4766C183.523 17.5851 183.083 18.6483 182.299 19.4321C181.515 20.2159 180.452 20.6563 179.343 20.6563H175.35V25.3019C175.35 25.5947 175.283 25.6879 175.004 25.6879H174.378C174.099 25.6879 173.992 25.5947 173.992 25.3019V12.6829C173.992 12.3901 174.099 12.2969 174.378 12.2969H179.343ZM179.224 19.3385C179.605 19.3385 179.982 19.2634 180.334 19.1176C180.686 18.9718 181.006 18.758 181.276 18.4886C181.545 18.2191 181.759 17.8991 181.905 17.5472C182.05 17.1951 182.125 16.8177 182.125 16.4366C182.125 16.0555 182.05 15.6782 181.905 15.3261C181.759 14.9741 181.545 14.6541 181.276 14.3847C181.006 14.1153 180.686 13.9015 180.334 13.7556C179.982 13.6099 179.605 13.5348 179.224 13.5348H175.23V19.3385H179.224Z" fill="#C4C4C4"/>
<path d="M81.2 23.6649V33.2889C81.2 33.6579 81.0534 34.0117 80.7925 34.2725C80.5318 34.5334 80.178 34.6799 79.809 34.6799C79.4401 34.6799 79.0863 34.5334 78.8254 34.2725C78.5645 34.0117 78.418 33.6579 78.418 33.2889V23.6782C78.8053 23.9611 79.2696 24.119 79.7491 24.1308C80.2717 24.1457 80.7837 23.9813 81.2 23.6649ZM93.0469 20.8829C92.6939 20.8829 92.3553 21.0232 92.1057 21.2728C91.8561 21.5224 91.7158 21.861 91.7158 22.214V23.8912C91.7158 24.2602 91.8624 24.614 92.1233 24.8748C92.384 25.1357 92.7378 25.2822 93.1068 25.2822C93.4758 25.2822 93.8296 25.1357 94.0904 24.8748C94.3513 24.614 94.4978 24.2602 94.4978 23.8912V22.2806C94.5082 22.0897 94.4773 21.8988 94.4073 21.721C94.3373 21.5431 94.2299 21.3823 94.0921 21.2498C93.9545 21.1172 93.7898 21.0157 93.6096 20.9524C93.4292 20.8892 93.2373 20.8655 93.0469 20.8829ZM75.3963 27.3122C74.9173 27.2978 74.4537 27.1402 74.0652 26.8596V36.5102C74.0652 36.8809 74.2125 37.2365 74.4746 37.4986C74.7367 37.7606 75.0922 37.9079 75.4629 37.9079C75.8336 37.9079 76.1891 37.7606 76.4512 37.4986C76.7133 37.2365 76.8605 36.8809 76.8605 36.5102V26.9262C76.4259 27.2072 75.913 27.3424 75.3963 27.3122ZM88.7075 17.9944C88.5271 17.9853 88.3469 18.0131 88.1776 18.076C88.0084 18.1388 87.8537 18.2354 87.7229 18.3599C87.5921 18.4845 87.4882 18.6342 87.4171 18.8002C87.3461 18.9662 87.3095 19.145 87.3098 19.3255V26.7398C87.3098 27.1105 87.457 27.4661 87.7191 27.7282C87.9814 27.9903 88.3368 28.1375 88.7075 28.1375C89.0782 28.1375 89.4337 27.9903 89.6958 27.7282C89.9579 27.4661 90.1052 27.1105 90.1052 26.7398V19.4187C90.1158 19.2266 90.0847 19.0345 90.0138 18.8556C89.943 18.6767 89.8344 18.5152 89.6952 18.3824C89.5559 18.2495 89.3897 18.1484 89.2077 18.0861C89.0258 18.0237 88.8323 18.0014 88.6409 18.021L88.7075 17.9944ZM84.2882 20.843C83.7867 20.8395 83.2988 20.6815 82.8905 20.3904V30.0676C82.8905 30.4383 83.0377 30.7939 83.2998 31.056C83.5621 31.318 83.9175 31.4653 84.2882 31.4653C84.6589 31.4653 85.0143 31.318 85.2765 31.056C85.5386 30.7939 85.6858 30.4383 85.6858 30.0676V20.4037C85.2636 20.7182 84.7481 20.8822 84.2216 20.8696L84.2882 20.843ZM72.3747 28.2573V1.22231C72.3712 0.892769 72.2378 0.577933 72.0035 0.346146C71.7693 0.114358 71.453 -0.0156383 71.1234 -0.015625H70.8306C70.501 -0.0156383 70.1848 0.114358 69.9505 0.346146C69.7162 0.577933 69.5828 0.892769 69.5793 1.22231V28.2573C69.5793 28.5891 69.7112 28.9074 69.9458 29.1421C70.1805 29.3767 70.4987 29.5085 70.8306 29.5085H71.1234C71.4553 29.5085 71.7736 29.3767 72.0082 29.1421C72.2429 28.9074 72.3747 28.5891 72.3747 28.2573ZM75.5427 26.2872H75.2499C74.9181 26.2872 74.5998 26.1554 74.3651 25.9208C74.1305 25.6861 73.9987 25.3678 73.9987 25.036V4.44361C74.0022 4.11408 74.1355 3.79922 74.3698 3.56745C74.6041 3.33566 74.9203 3.20566 75.2499 3.20568H75.5427C75.8723 3.20566 76.1886 3.33566 76.4228 3.56745C76.6571 3.79922 76.7905 4.11408 76.794 4.44361V25.0626C76.794 25.3944 76.6622 25.7127 76.4275 25.9474C76.1929 26.1821 75.8746 26.3139 75.5427 26.3139V26.2872ZM79.9487 23.1192H79.6426C79.3143 23.1192 78.9994 22.9887 78.7672 22.7566C78.5351 22.5244 78.4046 22.2096 78.4046 21.8812V7.63829C78.4029 7.4746 78.4337 7.3122 78.495 7.16046C78.5564 7.00873 78.6473 6.87069 78.7624 6.75432C78.8776 6.63796 79.0147 6.54558 79.1658 6.48254C79.3169 6.4195 79.4789 6.38703 79.6426 6.38704H79.9487C80.2783 6.39056 80.5931 6.52392 80.8249 6.7582C81.0568 6.99247 81.1867 7.30873 81.1867 7.63829V21.8812C81.1867 22.2096 81.0562 22.5244 80.8241 22.7566C80.5919 22.9887 80.2771 23.1192 79.9487 23.1192ZM84.3547 19.8579H84.0752C83.7456 19.8579 83.4293 19.728 83.1951 19.4961C82.9608 19.2644 82.8274 18.9496 82.8239 18.62V10.9528C82.813 10.7819 82.8373 10.6105 82.8953 10.4493C82.9532 10.2883 83.0437 10.1407 83.161 10.0159C83.2783 9.89107 83.4199 9.79177 83.5772 9.72388C83.7344 9.65613 83.9039 9.62125 84.0752 9.62165H84.368C84.6999 9.62165 85.0182 9.75344 85.2528 9.98811C85.4875 10.2228 85.6193 10.5411 85.6193 10.8729V18.5934C85.621 18.7588 85.59 18.923 85.5278 19.0763C85.4658 19.2297 85.374 19.3692 85.2575 19.4868C85.1412 19.6044 85.0027 19.6977 84.8499 19.7614C84.6972 19.8252 84.5335 19.8579 84.368 19.8579H84.3547ZM88.774 16.996H88.4812C88.1493 16.996 87.8311 16.8643 87.5964 16.6296C87.3617 16.3949 87.2299 16.0766 87.2299 15.7448V13.7614C87.2334 13.4318 87.3668 13.117 87.6011 12.8853C87.8353 12.6534 88.1516 12.5235 88.4812 12.5235H88.774C89.1036 12.5235 89.4199 12.6534 89.6542 12.8853C89.8884 13.117 90.0218 13.4318 90.0253 13.7614V15.7448C90.0253 16.0744 89.8954 16.3906 89.6635 16.6249C89.4317 16.8592 89.1169 16.9926 88.7873 16.996H88.774Z" fill="#C4C4C4"/>
</g>
<defs>
<clipPath id="clip0_1_836">
<rect width="175.707" height="46.5891" fill="white" transform="translate(0.255127 -0.00976562)"/>
</clipPath>
</defs>
</svg>
