<svg width="188" height="41" viewBox="0 0 188 41" fill="none" xmlns="http://www.w3.org/2000/svg">
<g clip-path="url(#clip0_1_813)">
<path d="M94.7977 14.1152C94.2932 14.6227 93.9069 15.2353 93.6662 15.9091C93.4255 16.5831 93.3365 17.3017 93.4053 18.014L93.3813 17.99C93.4522 18.8285 93.339 19.6722 93.05 20.4625C92.761 21.2526 92.3031 21.9702 91.7083 22.5652C91.1133 23.1601 90.3956 23.6181 89.6054 23.907C88.8152 24.196 87.9714 24.3091 87.1331 24.2383L87.157 24.2623C86.1542 24.1689 85.1469 24.3871 84.2725 24.8872C83.3982 25.3873 82.6994 26.1449 82.2715 27.0567C81.8435 27.9685 81.7071 28.99 81.8809 29.9822C82.0549 30.9743 82.5305 31.8886 83.243 32.6005C83.9556 33.3124 84.8703 33.7872 85.8625 33.9601C86.8549 34.1331 87.8762 33.9958 88.7877 33.567C89.6991 33.1381 90.456 32.4388 90.9553 31.564C91.4546 30.6892 91.6719 29.6818 91.5777 28.6789L91.603 28.7029C91.5322 27.8645 91.6452 27.0207 91.9342 26.2304C92.2231 25.4403 92.6812 24.7227 93.2761 24.1277C93.8711 23.5328 94.5887 23.0748 95.3788 22.7859C96.1691 22.4969 97.0128 22.3838 97.8512 22.4546L97.8259 22.4306C98.6451 22.5043 99.4697 22.3699 100.223 22.0401C100.977 21.7102 101.635 21.1955 102.136 20.5437C102.638 19.8918 102.967 19.1238 103.093 18.311C103.218 17.4981 103.137 16.6666 102.856 15.8935C102.575 15.1206 102.103 14.431 101.484 13.8889C100.866 13.3467 100.12 12.9695 99.3172 12.7922C98.514 12.6149 97.679 12.6431 96.8896 12.8743C96.1003 13.1056 95.3821 13.5324 94.8016 14.1152H94.7977Z" fill="#C4C4C4"/>
<path d="M84.9781 21.1248L84.9528 21.1008C85.6653 21.1726 86.3849 21.0851 87.0597 20.8447C87.7343 20.6043 88.3471 20.2171 88.8537 19.7109C89.3602 19.2047 89.7481 18.5921 89.9889 17.9176C90.2299 17.2431 90.3178 16.5237 90.2466 15.811L90.2719 15.8349C90.2011 14.9965 90.3142 14.1528 90.6031 13.3625C90.8921 12.5724 91.3501 11.8548 91.945 11.2598C92.54 10.6649 93.2576 10.2068 94.0478 9.918C94.838 9.62896 95.6817 9.51591 96.5202 9.58668L96.4949 9.56272C97.4979 9.65697 98.5054 9.43941 99.3802 8.93989C100.255 8.44038 100.955 7.68315 101.383 6.77151C101.812 5.85988 101.949 4.83821 101.775 3.84585C101.602 2.85349 101.127 1.93877 100.414 1.22644C99.7022 0.514117 98.7875 0.0388548 97.7951 -0.134483C96.8028 -0.307834 95.7811 -0.170849 94.8695 0.257797C93.9578 0.68643 93.2006 1.38586 92.7011 2.26069C92.2015 3.1355 91.984 4.14311 92.0782 5.14608L92.0543 5.12079C92.1252 5.95925 92.0124 6.80309 91.7235 7.5934C91.4346 8.38371 90.9766 9.10144 90.3817 9.6965C89.7867 10.2914 89.069 10.7494 88.2787 11.0383C87.4883 11.3271 86.6445 11.44 85.806 11.369L85.83 11.3943C85.1174 11.3226 84.3977 11.41 83.7231 11.6504C83.0485 11.8907 82.4356 12.2781 81.929 12.7843C81.4224 13.2905 81.0346 13.9031 80.7937 14.5776C80.5529 15.252 80.4649 15.9715 80.5361 16.6842L80.5122 16.6602C80.5827 17.4986 80.4694 18.3422 80.1805 19.1324C79.8913 19.9224 79.4334 20.64 78.8386 21.2349C78.2436 21.8298 77.5261 22.2877 76.736 22.5768C75.9459 22.8658 75.1023 22.979 74.2639 22.9085L74.2879 22.9324C73.2849 22.8382 72.2773 23.0557 71.4025 23.5553C70.5277 24.0548 69.8282 24.812 69.3996 25.7237C68.9709 26.6353 68.8339 27.657 69.0073 28.6493C69.1807 29.6417 69.6559 30.5564 70.3682 31.2687C71.0806 31.9811 71.9953 32.4563 72.9876 32.6296C73.98 32.8029 75.0017 32.666 75.9133 32.2374C76.8249 31.8087 77.5822 31.1094 78.0817 30.2346C78.5813 29.3596 78.7988 28.3521 78.7045 27.3491L78.7298 27.3731C78.659 26.5346 78.7721 25.6909 79.0611 24.9006C79.35 24.1105 79.808 23.3929 80.4029 22.7979C80.9979 22.203 81.7155 21.745 82.5057 21.4561C83.2959 21.1671 84.1396 21.054 84.9781 21.1248Z" fill="#C4C4C4"/>
<path d="M76.0571 18.4534C76.5617 17.9459 76.9479 17.3334 77.1884 16.6594C77.4288 15.9855 77.5175 15.2667 77.4482 14.5545L77.4734 14.5785C77.4026 13.7399 77.5157 12.8958 77.8048 12.1054C78.094 11.315 78.5522 10.5972 79.1475 10.0022C79.7427 9.40725 80.4606 8.94936 81.2512 8.66058C82.0417 8.37178 82.8858 8.25903 83.7244 8.33022L83.6991 8.30626C84.7017 8.4002 85.7089 8.18258 86.5833 7.68309C87.4578 7.18361 88.1567 6.42657 88.5852 5.51522C89.0136 4.60386 89.1504 3.58256 88.9771 2.59057C88.8038 1.59858 88.3286 0.684214 87.6166 -0.0278535C86.9045 -0.73992 85.9901 -1.21502 84.9981 -1.38836C84.0062 -1.56171 82.9848 -1.42485 82.0735 -0.996466C81.1621 -0.568087 80.4051 0.130975 79.9057 1.00539C79.4061 1.8798 79.1885 2.887 79.2824 3.88962L79.2585 3.86566C79.3293 4.70406 79.2161 5.54782 78.9272 6.33802C78.6382 7.12823 78.1803 7.84584 77.5853 8.4408C76.9904 9.03575 76.2728 9.4937 75.4826 9.7826C74.6924 10.0716 73.8486 10.1847 73.0102 10.1139L73.0342 10.1379C72.215 10.0644 71.3905 10.199 70.6371 10.529C69.8837 10.8589 69.2258 11.3738 68.7243 12.0258C68.2229 12.6776 67.8941 13.4457 67.7685 14.2585C67.6429 15.0714 67.7245 15.9028 68.0057 16.6757C68.2869 17.4486 68.7587 18.138 69.3773 18.68C69.9959 19.2222 70.7414 19.5993 71.5445 19.7766C72.3477 19.9538 73.1826 19.9254 73.9719 19.6942C74.7612 19.4629 75.4793 19.0361 76.0598 18.4534H76.0571Z" fill="#C4C4C4"/>
<path d="M117.291 5.17529H121.244V24.4139H117.291V5.17529Z" fill="#C4C4C4"/>
<path d="M123.483 17.8282C123.478 16.4457 123.883 15.0925 124.647 13.9403C125.411 12.7881 126.5 11.8885 127.775 11.3557C129.051 10.8227 130.456 10.6804 131.813 10.9468C133.17 11.2131 134.417 11.876 135.396 12.8517C136.376 13.8273 137.044 15.0717 137.316 16.4274C137.587 17.783 137.451 19.1888 136.923 20.4666C136.395 21.7444 135.5 22.8369 134.351 23.6055C133.202 24.3743 131.85 24.7846 130.468 24.7846C129.55 24.7951 128.639 24.6225 127.789 24.2769C126.939 23.9314 126.166 23.4198 125.516 22.7723C124.865 22.1245 124.351 21.3537 124.002 20.5048C123.653 19.656 123.476 18.746 123.483 17.8282ZM133.499 17.8282C133.482 17.2323 133.29 16.6544 132.947 16.1669C132.604 15.6794 132.125 15.3038 131.569 15.0872C131.014 14.8705 130.407 14.8223 129.825 14.9488C129.242 15.0752 128.709 15.3705 128.294 15.7979C127.878 16.2252 127.598 16.7656 127.487 17.3516C127.377 17.9374 127.442 18.5428 127.674 19.092C127.906 19.6412 128.295 20.1098 128.792 20.4392C129.288 20.7687 129.872 20.9444 130.468 20.9444C130.876 20.9553 131.282 20.8814 131.66 20.7275C132.039 20.5736 132.381 20.3431 132.666 20.0504C132.951 19.7575 133.172 19.4089 133.315 19.0265C133.458 18.6441 133.521 18.2361 133.499 17.8282Z" fill="#C4C4C4"/>
<path d="M153.208 11.2376V23.7501C153.208 28.1774 149.755 30.0489 146.251 30.0489C145.017 30.1413 143.781 29.892 142.679 29.3285C141.578 28.7649 140.652 27.9089 140.005 26.8542L143.378 24.9042C143.65 25.4539 144.084 25.9074 144.621 26.2041C145.158 26.5007 145.772 26.6263 146.382 26.5641C146.772 26.6181 147.17 26.5838 147.545 26.4636C147.919 26.3434 148.263 26.1404 148.549 25.8697C148.834 25.599 149.056 25.2675 149.196 24.8996C149.337 24.5318 149.393 24.1372 149.36 23.7447V22.5401C148.897 23.1065 148.308 23.5565 147.64 23.854C146.971 24.1515 146.243 24.2882 145.512 24.2532C143.773 24.1984 142.124 23.4692 140.914 22.2198C139.703 20.9706 139.026 19.2992 139.026 17.5597C139.026 15.8202 139.703 14.1489 140.914 12.8996C142.124 11.6502 143.773 10.921 145.512 10.8662C146.243 10.8312 146.971 10.9679 147.64 11.2654C148.308 11.5629 148.897 12.013 149.36 12.5794V11.2349L153.208 11.2376ZM149.361 17.5617C149.388 16.9246 149.223 16.2941 148.888 15.7514C148.554 15.2086 148.064 14.7785 147.483 14.5164C146.902 14.2542 146.255 14.172 145.627 14.2804C144.998 14.3887 144.417 14.6826 143.957 15.1244C143.497 15.5661 143.18 16.1353 143.046 16.7588C142.912 17.3823 142.968 18.0316 143.207 18.623C143.445 19.2144 143.855 19.7211 144.384 20.0775C144.912 20.434 145.536 20.6241 146.173 20.6233C146.589 20.6523 147.006 20.594 147.397 20.4521C147.789 20.3102 148.146 20.0878 148.446 19.7995C148.747 19.511 148.983 19.1629 149.141 18.7774C149.298 18.3921 149.374 17.978 149.361 17.5617Z" fill="#C4C4C4"/>
<path d="M155.447 17.8282C155.442 16.4457 155.847 15.0925 156.611 13.9403C157.375 12.7881 158.464 11.8885 159.74 11.3557C161.015 10.8227 162.42 10.6804 163.777 10.9468C165.134 11.2131 166.381 11.876 167.36 12.8517C168.34 13.8273 169.008 15.0717 169.28 16.4274C169.552 17.783 169.415 19.1888 168.887 20.4666C168.359 21.7444 167.464 22.8369 166.315 23.6055C165.166 24.3743 163.814 24.7846 162.432 24.7846C161.514 24.7951 160.603 24.6225 159.753 24.2769C158.903 23.9314 158.13 23.4198 157.48 22.7723C156.829 22.1245 156.315 21.3537 155.966 20.5048C155.617 19.656 155.441 18.746 155.447 17.8282ZM165.463 17.8282C165.446 17.2323 165.254 16.6544 164.911 16.1669C164.568 15.6794 164.089 15.3038 163.534 15.0872C162.978 14.8705 162.371 14.8223 161.789 14.9488C161.206 15.0752 160.674 15.3705 160.258 15.7979C159.842 16.2252 159.562 16.7656 159.451 17.3516C159.341 17.9374 159.406 18.5428 159.638 19.092C159.87 19.6412 160.259 20.1098 160.756 20.4392C161.253 20.7687 161.835 20.9444 162.432 20.9444C162.84 20.9553 163.246 20.8814 163.624 20.7275C164.003 20.5736 164.345 20.3431 164.63 20.0504C164.915 19.7575 165.136 19.4089 165.279 19.0265C165.422 18.6441 165.485 18.2361 165.463 17.8282Z" fill="#C4C4C4"/>
<path d="M171.26 7.7075C171.26 7.23835 171.399 6.77974 171.659 6.38967C171.92 5.99959 172.291 5.69555 172.724 5.51602C173.157 5.33648 173.634 5.2895 174.095 5.38103C174.555 5.47256 174.977 5.69847 175.309 6.03021C175.641 6.36194 175.867 6.7846 175.958 7.24474C176.05 7.70486 176.003 8.1818 175.823 8.61524C175.644 9.04868 175.34 9.41914 174.95 9.67981C174.559 9.94045 174.101 10.0795 173.632 10.0795C173.005 10.0733 172.405 9.82144 171.961 9.37789C171.518 8.93439 171.266 8.33467 171.26 7.7075ZM171.659 11.239H175.614V24.417H171.654L171.659 11.239Z" fill="#C4C4C4"/>
<path d="M192.684 17.8279C192.73 18.6988 192.603 19.5702 192.31 20.3919C192.018 21.2136 191.566 21.9694 190.981 22.6159C190.396 23.2623 189.688 23.7867 188.9 24.1589C188.111 24.531 187.256 24.7436 186.385 24.7843C185.652 24.8242 184.92 24.7007 184.241 24.4226C183.562 24.1444 182.954 23.7187 182.46 23.1763V29.6868H178.506V11.2389H182.46V12.4768C182.954 11.9348 183.563 11.5093 184.241 11.2315C184.92 10.9536 185.653 10.8302 186.385 10.8701C187.256 10.9107 188.111 11.1232 188.9 11.4954C189.689 11.8675 190.397 12.392 190.982 13.0387C191.567 13.6853 192.019 14.4414 192.311 15.2633C192.603 16.0852 192.73 16.9568 192.684 17.8279ZM188.731 17.8279C188.715 17.2112 188.518 16.6127 188.164 16.1073C187.81 15.602 187.315 15.2122 186.741 14.987C186.167 14.7616 185.539 14.7107 184.935 14.8406C184.332 14.9704 183.781 15.2752 183.35 15.7169C182.919 16.1587 182.629 16.7175 182.514 17.3238C182.399 17.93 182.466 18.5564 182.706 19.1249C182.945 19.6934 183.347 20.1785 183.862 20.5197C184.376 20.8607 184.979 21.0427 185.596 21.0425C186.019 21.0614 186.442 20.9905 186.836 20.8345C187.23 20.6786 187.587 20.441 187.883 20.1375C188.179 19.8339 188.408 19.4713 188.554 19.0733C188.7 18.6753 188.76 18.2508 188.731 17.8279Z" fill="#C4C4C4"/>
</g>
<defs>
<clipPath id="clip0_1_813">
<rect width="186.356" height="39.9335" fill="white" transform="translate(0.955322 0.317871)"/>
</clipPath>
</defs>
</svg>
