<svg width="89" height="53" viewBox="0 0 89 53" fill="none" xmlns="http://www.w3.org/2000/svg">
<g clip-path="url(#clip0_1_847)">
<path d="M90.905 -1.01025C87.846 -1.01025 84.8167 -0.407658 81.9905 0.762925C79.1643 1.93364 76.5964 3.64945 74.4332 5.81251C72.2702 7.97571 70.5544 10.5436 69.3837 13.3698C68.2131 16.196 67.6105 19.2252 67.6105 22.2843C67.6105 25.3433 68.2131 28.3725 69.3837 31.1988C70.5544 34.025 72.2702 36.5928 74.4332 38.756C76.5964 40.9191 79.1643 42.6349 81.9905 43.8056C84.8167 44.9762 87.846 45.5788 90.905 45.5788V33.9315C89.3754 33.9315 87.8609 33.6303 86.4478 33.0449C85.0346 32.4596 83.7507 31.6017 82.6691 30.5202C81.5876 29.4386 80.7297 28.1546 80.1444 26.7415C79.559 25.3284 79.2577 23.8139 79.2577 22.2843C79.2577 20.7547 79.559 19.2401 80.1444 17.827C80.7297 16.4139 81.5876 15.1299 82.6691 14.0484C83.7507 12.9669 85.0346 12.109 86.4478 11.5237C87.8609 10.9382 89.3754 10.637 90.905 10.637V-1.01025Z" fill="#C4C4C4"/>
<path d="M90.9049 30.0486C95.1934 30.0486 98.6697 26.5723 98.6697 22.2838C98.6697 17.9954 95.1934 14.519 90.9049 14.519C86.6165 14.519 83.1401 17.9954 83.1401 22.2838C83.1401 26.5723 86.6165 30.0486 90.9049 30.0486Z" fill="#C4C4C4"/>
<path d="M67.6105 22.2847C67.6105 25.3437 68.2131 28.3729 69.3837 31.1992C70.5544 34.0254 72.2702 36.5932 74.4332 38.7564C76.5964 40.9195 79.1643 42.6353 81.9905 43.806C84.8167 44.9766 87.846 45.5792 90.905 45.5792C93.964 45.5792 96.9933 44.9766 99.8195 43.806C102.646 42.6353 105.214 40.9195 107.377 38.7564C109.54 36.5932 111.256 34.0254 112.426 31.1992C113.597 28.3729 114.2 25.3437 114.2 22.2847H102.552C102.552 23.8143 102.251 25.3288 101.666 26.7419C101.08 28.155 100.222 29.439 99.1409 30.5205C98.0593 31.6021 96.7754 32.46 95.3622 33.0453C93.9491 33.6307 92.4346 33.9319 90.905 33.9319C89.3754 33.9319 87.8609 33.6307 86.4478 33.0453C85.0346 32.46 83.7507 31.6021 82.6691 30.5205C81.5876 29.439 80.7297 28.155 80.1444 26.7419C79.559 25.3288 79.2577 23.8143 79.2577 22.2847H67.6105Z" fill="#C4C4C4"/>
<path d="M98.6699 22.284C98.6699 20.2246 97.8518 18.2496 96.3957 16.7934C94.9394 15.3371 92.9644 14.519 90.9051 14.519C88.8457 14.519 86.8707 15.3371 85.4145 16.7934C83.9582 18.2496 83.1401 20.2246 83.1401 22.284H90.9051H98.6699Z" fill="#C4C4C4"/>
</g>
<defs>
<clipPath id="clip0_1_847">
<rect width="169.052" height="51.9135" fill="white" transform="translate(0.948242 0.327637)"/>
</clipPath>
</defs>
</svg>
